<svg xmlns="http://www.w3.org/2000/svg" xmlns:xlink="http://www.w3.org/1999/xlink" width="1000" zoomAndPan="magnify" viewBox="0 0 750 374.999991" height="500" preserveAspectRatio="xMidYMid meet" version="1.0"><defs><g/><clipPath id="bb69b0ad5f"><path d="M 642 104 L 714 104 L 714 176 L 642 176 Z M 642 104 " clip-rule="nonzero"/></clipPath><clipPath id="9e0bbfdac4"><path d="M 627.175781 115.15625 L 677.847656 68.324219 L 747.589844 143.78125 L 696.917969 190.613281 Z M 627.175781 115.15625 " clip-rule="nonzero"/></clipPath><clipPath id="74c1b554b4"><path d="M 627.175781 115.15625 L 677.847656 68.324219 L 747.589844 143.78125 L 696.917969 190.613281 Z M 627.175781 115.15625 " clip-rule="nonzero"/></clipPath><clipPath id="85f0d1dfa3"><path d="M 678 70 L 750 70 L 750 143 L 678 143 Z M 678 70 " clip-rule="nonzero"/></clipPath><clipPath id="cb6231220f"><path d="M 663.558594 81.53125 L 714.230469 34.695312 L 783.972656 110.152344 L 733.300781 156.988281 Z M 663.558594 81.53125 " clip-rule="nonzero"/></clipPath><clipPath id="d44187046a"><path d="M 663.558594 81.53125 L 714.230469 34.695312 L 783.972656 110.152344 L 733.300781 156.988281 Z M 663.558594 81.53125 " clip-rule="nonzero"/></clipPath></defs><g clip-path="url(#bb69b0ad5f)"><g clip-path="url(#9e0bbfdac4)"><g clip-path="url(#74c1b554b4)"><path fill="#006fee" d="M 713.136719 106.765625 L 651.664062 104.03125 C 639.792969 103.503906 637.785156 126.632812 651.855469 127.015625 L 690.105469 128.050781 L 687.183594 166.539062 C 686.292969 178.261719 709.152344 179.5 709.804688 167.585938 Z M 713.136719 106.765625 " fill-opacity="1" fill-rule="nonzero"/></g></g></g><g clip-path="url(#85f0d1dfa3)"><g clip-path="url(#cb6231220f)"><g clip-path="url(#d44187046a)"><path fill="#006fee" d="M 749.519531 73.136719 L 688.046875 70.40625 C 676.171875 69.878906 674.167969 93.007812 688.234375 93.390625 L 726.488281 94.425781 L 723.566406 132.914062 C 722.675781 144.632812 745.535156 145.871094 746.1875 133.960938 Z M 749.519531 73.136719 " fill-opacity="1" fill-rule="nonzero"/></g></g></g><g fill="#373643" fill-opacity="1"><g transform="translate(-2.786714, 264.145412)"><g><path d="M 72.265625 -68.046875 C 69.453125 -71.335938 66.15625 -73.65625 62.375 -75 C 58.59375 -76.34375 54.875 -77.015625 51.21875 -77.015625 C 43.175781 -77.015625 36.710938 -74.238281 31.828125 -68.6875 C 26.953125 -63.144531 24.515625 -55.675781 24.515625 -46.28125 C 24.515625 -37.257812 27.046875 -30.003906 32.109375 -24.515625 C 37.171875 -19.023438 43.785156 -16.28125 51.953125 -16.28125 C 55.609375 -16.28125 59.328125 -16.921875 63.109375 -18.203125 C 66.890625 -19.484375 70.242188 -21.585938 73.171875 -24.515625 C 75.859375 -27.191406 78.507812 -28.59375 81.125 -28.71875 C 83.75 -28.84375 85.914062 -28.109375 87.625 -26.515625 C 89.332031 -24.929688 90.273438 -22.890625 90.453125 -20.390625 C 90.640625 -17.890625 89.578125 -15.363281 87.265625 -12.8125 C 82.503906 -7.5625 77.046875 -3.804688 70.890625 -1.546875 C 64.734375 0.703125 58.359375 1.828125 51.765625 1.828125 C 42.128906 1.828125 33.679688 -0.179688 26.421875 -4.203125 C 19.171875 -8.234375 13.53125 -13.84375 9.5 -21.03125 C 5.476562 -28.226562 3.46875 -36.582031 3.46875 -46.09375 C 3.46875 -55.976562 5.445312 -64.578125 9.40625 -71.890625 C 13.375 -79.210938 18.957031 -84.882812 26.15625 -88.90625 C 33.351562 -92.925781 41.707031 -94.9375 51.21875 -94.9375 C 57.925781 -94.9375 64.175781 -93.898438 69.96875 -91.828125 C 75.757812 -89.753906 81.097656 -85.851562 85.984375 -80.125 C 88.179688 -77.5625 89.125 -75.0625 88.8125 -72.625 C 88.507812 -70.1875 87.441406 -68.175781 85.609375 -66.59375 C 83.785156 -65.007812 81.625 -64.242188 79.125 -64.296875 C 76.625 -64.359375 74.335938 -65.609375 72.265625 -68.046875 Z M 72.265625 -68.046875 "/></g></g></g><g fill="#373643" fill-opacity="1"><g transform="translate(88.673169, 264.145412)"><g><path d="M 52.3125 -94.9375 C 62.070312 -94.9375 70.609375 -92.894531 77.921875 -88.8125 C 85.242188 -84.726562 90.914062 -79.023438 94.9375 -71.703125 C 98.96875 -64.390625 100.984375 -55.851562 100.984375 -46.09375 C 100.859375 -36.582031 98.753906 -28.226562 94.671875 -21.03125 C 90.585938 -13.84375 84.914062 -8.234375 77.65625 -4.203125 C 70.394531 -0.179688 61.945312 1.828125 52.3125 1.828125 C 42.800781 1.828125 34.382812 -0.179688 27.0625 -4.203125 C 19.75 -8.234375 14.050781 -13.84375 9.96875 -21.03125 C 5.882812 -28.226562 3.78125 -36.582031 3.65625 -46.09375 C 3.65625 -55.851562 5.695312 -64.390625 9.78125 -71.703125 C 13.875 -79.023438 19.578125 -84.726562 26.890625 -88.8125 C 34.210938 -92.894531 42.6875 -94.9375 52.3125 -94.9375 Z M 52.3125 -16.46875 C 60.613281 -16.46875 67.234375 -19.207031 72.171875 -24.6875 C 77.109375 -30.175781 79.578125 -37.3125 79.578125 -46.09375 C 79.578125 -55.125 77.109375 -62.472656 72.171875 -68.140625 C 67.234375 -73.816406 60.613281 -76.65625 52.3125 -76.65625 C 44.144531 -76.65625 37.5625 -73.816406 32.5625 -68.140625 C 27.5625 -62.472656 25.0625 -55.125 25.0625 -46.09375 C 25.0625 -37.3125 27.5625 -30.175781 32.5625 -24.6875 C 37.5625 -19.207031 44.144531 -16.46875 52.3125 -16.46875 Z M 52.3125 -16.46875 "/></g></g></g><g fill="#373643" fill-opacity="1"><g transform="translate(190.193832, 264.145412)"><g><path d="M 61.65625 -94.9375 C 70.1875 -94.9375 77.441406 -93.078125 83.421875 -89.359375 C 89.398438 -85.640625 93.972656 -80.488281 97.140625 -73.90625 C 100.304688 -67.320312 101.890625 -59.640625 101.890625 -50.859375 L 101.890625 -9.515625 C 101.890625 -6.710938 100.972656 -4.425781 99.140625 -2.65625 C 97.316406 -0.882812 94.757812 0 91.46875 0 C 88.414062 0 85.914062 -0.882812 83.96875 -2.65625 C 82.019531 -4.425781 81.046875 -6.710938 81.046875 -9.515625 L 81.046875 -51.21875 C 81.046875 -58.78125 79.242188 -64.910156 75.640625 -69.609375 C 72.046875 -74.304688 66.347656 -76.65625 58.546875 -76.65625 C 56.222656 -76.65625 53.445312 -76.015625 50.21875 -74.734375 C 46.988281 -73.453125 43.816406 -71.53125 40.703125 -68.96875 C 37.585938 -66.40625 35.023438 -63.171875 33.015625 -59.265625 C 31.003906 -55.367188 30 -50.738281 30 -45.375 L 30 -9.328125 C 30 -3.109375 26.644531 0 19.9375 0 C 16.769531 0 14.175781 -0.820312 12.15625 -2.46875 C 10.144531 -4.113281 9.140625 -6.398438 9.140625 -9.328125 L 9.140625 -83.78125 C 9.140625 -86.832031 10.207031 -89.148438 12.34375 -90.734375 C 14.476562 -92.316406 16.890625 -93.109375 19.578125 -93.109375 C 22.140625 -93.109375 24.515625 -92.316406 26.703125 -90.734375 C 28.898438 -89.148438 30 -86.957031 30 -84.15625 L 30 -82.875 C 35.25 -87.75 40.675781 -90.976562 46.28125 -92.5625 C 51.894531 -94.144531 57.019531 -94.9375 61.65625 -94.9375 Z M 61.65625 -94.9375 "/></g></g></g><g fill="#373643" fill-opacity="1"><g transform="translate(301.226497, 264.145412)"><g><path d="M 72.265625 -68.046875 C 69.453125 -71.335938 66.15625 -73.65625 62.375 -75 C 58.59375 -76.34375 54.875 -77.015625 51.21875 -77.015625 C 43.175781 -77.015625 36.710938 -74.238281 31.828125 -68.6875 C 26.953125 -63.144531 24.515625 -55.675781 24.515625 -46.28125 C 24.515625 -37.257812 27.046875 -30.003906 32.109375 -24.515625 C 37.171875 -19.023438 43.785156 -16.28125 51.953125 -16.28125 C 55.609375 -16.28125 59.328125 -16.921875 63.109375 -18.203125 C 66.890625 -19.484375 70.242188 -21.585938 73.171875 -24.515625 C 75.859375 -27.191406 78.507812 -28.59375 81.125 -28.71875 C 83.75 -28.84375 85.914062 -28.109375 87.625 -26.515625 C 89.332031 -24.929688 90.273438 -22.890625 90.453125 -20.390625 C 90.640625 -17.890625 89.578125 -15.363281 87.265625 -12.8125 C 82.503906 -7.5625 77.046875 -3.804688 70.890625 -1.546875 C 64.734375 0.703125 58.359375 1.828125 51.765625 1.828125 C 42.128906 1.828125 33.679688 -0.179688 26.421875 -4.203125 C 19.171875 -8.234375 13.53125 -13.84375 9.5 -21.03125 C 5.476562 -28.226562 3.46875 -36.582031 3.46875 -46.09375 C 3.46875 -55.976562 5.445312 -64.578125 9.40625 -71.890625 C 13.375 -79.210938 18.957031 -84.882812 26.15625 -88.90625 C 33.351562 -92.925781 41.707031 -94.9375 51.21875 -94.9375 C 57.925781 -94.9375 64.175781 -93.898438 69.96875 -91.828125 C 75.757812 -89.753906 81.097656 -85.851562 85.984375 -80.125 C 88.179688 -77.5625 89.125 -75.0625 88.8125 -72.625 C 88.507812 -70.1875 87.441406 -68.175781 85.609375 -66.59375 C 83.785156 -65.007812 81.625 -64.242188 79.125 -64.296875 C 76.625 -64.359375 74.335938 -65.609375 72.265625 -68.046875 Z M 72.265625 -68.046875 "/></g></g></g><g fill="#373643" fill-opacity="1"><g transform="translate(392.686374, 264.145412)"><g><path d="M 52.3125 -94.9375 C 62.070312 -94.9375 70.609375 -92.894531 77.921875 -88.8125 C 85.242188 -84.726562 90.914062 -79.023438 94.9375 -71.703125 C 98.96875 -64.390625 100.984375 -55.851562 100.984375 -46.09375 C 100.859375 -36.582031 98.753906 -28.226562 94.671875 -21.03125 C 90.585938 -13.84375 84.914062 -8.234375 77.65625 -4.203125 C 70.394531 -0.179688 61.945312 1.828125 52.3125 1.828125 C 42.800781 1.828125 34.382812 -0.179688 27.0625 -4.203125 C 19.75 -8.234375 14.050781 -13.84375 9.96875 -21.03125 C 5.882812 -28.226562 3.78125 -36.582031 3.65625 -46.09375 C 3.65625 -55.851562 5.695312 -64.390625 9.78125 -71.703125 C 13.875 -79.023438 19.578125 -84.726562 26.890625 -88.8125 C 34.210938 -92.894531 42.6875 -94.9375 52.3125 -94.9375 Z M 52.3125 -16.46875 C 60.613281 -16.46875 67.234375 -19.207031 72.171875 -24.6875 C 77.109375 -30.175781 79.578125 -37.3125 79.578125 -46.09375 C 79.578125 -55.125 77.109375 -62.472656 72.171875 -68.140625 C 67.234375 -73.816406 60.613281 -76.65625 52.3125 -76.65625 C 44.144531 -76.65625 37.5625 -73.816406 32.5625 -68.140625 C 27.5625 -62.472656 25.0625 -55.125 25.0625 -46.09375 C 25.0625 -37.3125 27.5625 -30.175781 32.5625 -24.6875 C 37.5625 -19.207031 44.144531 -16.46875 52.3125 -16.46875 Z M 52.3125 -16.46875 "/></g></g></g><g fill="#373643" fill-opacity="1"><g transform="translate(494.207037, 264.145412)"><g><path d="M 49.390625 -93.109375 C 52.679688 -93.109375 55.300781 -92.40625 57.25 -91 C 59.207031 -89.601562 60.1875 -87.320312 60.1875 -84.15625 C 60.1875 -81.226562 59.207031 -78.910156 57.25 -77.203125 C 55.300781 -75.492188 52.679688 -74.640625 49.390625 -74.640625 C 41.710938 -74.640625 36.316406 -71.894531 33.203125 -66.40625 C 30.085938 -60.914062 28.53125 -53.476562 28.53125 -44.09375 L 28.53125 -9.328125 C 28.53125 -6.648438 27.554688 -4.425781 25.609375 -2.65625 C 23.660156 -0.882812 21.285156 0 18.484375 0 C 15.304688 0 12.738281 -0.882812 10.78125 -2.65625 C 8.832031 -4.425781 7.859375 -6.648438 7.859375 -9.328125 L 7.859375 -83.78125 C 7.859375 -86.707031 8.988281 -88.992188 11.25 -90.640625 C 13.507812 -92.285156 15.921875 -93.109375 18.484375 -93.109375 C 21.035156 -93.109375 23.347656 -92.316406 25.421875 -90.734375 C 27.492188 -89.148438 28.53125 -86.832031 28.53125 -83.78125 L 28.53125 -82.6875 C 31.21875 -86.226562 34.328125 -88.847656 37.859375 -90.546875 C 41.398438 -92.253906 45.242188 -93.109375 49.390625 -93.109375 Z M 49.390625 -93.109375 "/></g></g></g><g fill="#373643" fill-opacity="1"><g transform="translate(548.899395, 264.145412)"><g><path d="M 49.390625 -93.109375 C 52.679688 -93.109375 55.300781 -92.40625 57.25 -91 C 59.207031 -89.601562 60.1875 -87.320312 60.1875 -84.15625 C 60.1875 -81.226562 59.207031 -78.910156 57.25 -77.203125 C 55.300781 -75.492188 52.679688 -74.640625 49.390625 -74.640625 C 41.710938 -74.640625 36.316406 -71.894531 33.203125 -66.40625 C 30.085938 -60.914062 28.53125 -53.476562 28.53125 -44.09375 L 28.53125 -9.328125 C 28.53125 -6.648438 27.554688 -4.425781 25.609375 -2.65625 C 23.660156 -0.882812 21.285156 0 18.484375 0 C 15.304688 0 12.738281 -0.882812 10.78125 -2.65625 C 8.832031 -4.425781 7.859375 -6.648438 7.859375 -9.328125 L 7.859375 -83.78125 C 7.859375 -86.707031 8.988281 -88.992188 11.25 -90.640625 C 13.507812 -92.285156 15.921875 -93.109375 18.484375 -93.109375 C 21.035156 -93.109375 23.347656 -92.316406 25.421875 -90.734375 C 27.492188 -89.148438 28.53125 -86.832031 28.53125 -83.78125 L 28.53125 -82.6875 C 31.21875 -86.226562 34.328125 -88.847656 37.859375 -90.546875 C 41.398438 -92.253906 45.242188 -93.109375 49.390625 -93.109375 Z M 49.390625 -93.109375 "/></g></g></g><g fill="#373643" fill-opacity="1"><g transform="translate(603.591753, 264.145412)"><g><path d="M 27.4375 -106.828125 C 27.4375 -103.785156 26.304688 -101.5 24.046875 -99.96875 C 21.796875 -98.445312 19.390625 -97.6875 16.828125 -97.6875 C 14.148438 -97.6875 11.710938 -98.445312 9.515625 -99.96875 C 7.316406 -101.5 6.21875 -103.785156 6.21875 -106.828125 L 6.21875 -109.21875 C 6.21875 -112.382812 7.316406 -114.695312 9.515625 -116.15625 C 11.710938 -117.625 14.148438 -118.359375 16.828125 -118.359375 C 19.390625 -118.359375 21.796875 -117.625 24.046875 -116.15625 C 26.304688 -114.695312 27.4375 -112.382812 27.4375 -109.21875 Z M 6.40625 -84.15625 C 6.40625 -87.082031 7.53125 -89.304688 9.78125 -90.828125 C 12.039062 -92.347656 14.390625 -93.109375 16.828125 -93.109375 C 19.390625 -93.109375 21.765625 -92.347656 23.953125 -90.828125 C 26.148438 -89.304688 27.25 -87.140625 27.25 -84.328125 L 27.25 -8.96875 C 27.25 -5.914062 26.148438 -3.65625 23.953125 -2.1875 C 21.765625 -0.726562 19.390625 0 16.828125 0 C 14.390625 0 12.039062 -0.726562 9.78125 -2.1875 C 7.53125 -3.65625 6.40625 -5.914062 6.40625 -8.96875 Z M 6.40625 -84.15625 "/></g></g></g></svg>