<svg xmlns="http://www.w3.org/2000/svg" xmlns:xlink="http://www.w3.org/1999/xlink" width="500" zoomAndPan="magnify" viewBox="0 0 375 374.999991" height="500" preserveAspectRatio="xMidYMid meet" version="1.0"><defs><clipPath id="194b931d9f"><path d="M 35 166 L 206 166 L 206 339 L 35 339 Z M 35 166 " clip-rule="nonzero"/></clipPath><clipPath id="fdb966bf79"><path d="M -0.00390625 193.199219 L 119.40625 82.835938 L 286.625 263.757812 L 167.214844 374.121094 Z M -0.00390625 193.199219 " clip-rule="nonzero"/></clipPath><clipPath id="7557927ac2"><path d="M -0.00390625 193.199219 L 119.40625 82.835938 L 286.625 263.757812 L 167.214844 374.121094 Z M -0.00390625 193.199219 " clip-rule="nonzero"/></clipPath><clipPath id="5c5fb8b687"><path d="M 122 86 L 293 86 L 293 259 L 122 259 Z M 122 86 " clip-rule="nonzero"/></clipPath><clipPath id="f0d21f40bc"><path d="M 87.027344 112.761719 L 206.433594 2.398438 L 373.652344 183.320312 L 254.246094 293.683594 Z M 87.027344 112.761719 " clip-rule="nonzero"/></clipPath><clipPath id="e2886c2f62"><path d="M 87.027344 112.761719 L 206.433594 2.398438 L 373.652344 183.320312 L 254.246094 293.683594 Z M 87.027344 112.761719 " clip-rule="nonzero"/></clipPath></defs><rect x="-37.5" width="450" fill="#ffffff" y="-37.499999" height="449.999989" fill-opacity="1"/><rect x="-37.5" width="450" fill="#ffffff" y="-37.499999" height="449.999989" fill-opacity="1"/><g clip-path="url(#194b931d9f)"><g clip-path="url(#fdb966bf79)"><g clip-path="url(#7557927ac2)"><path fill="#006fee" d="M 205.597656 173.148438 L 58.582031 166.613281 C 30.183594 165.351562 25.390625 220.667969 59.035156 221.582031 L 150.515625 224.058594 L 143.53125 316.109375 C 141.402344 344.140625 196.070312 347.101562 197.632812 318.613281 Z M 205.597656 173.148438 " fill-opacity="1" fill-rule="nonzero"/></g></g></g><g clip-path="url(#5c5fb8b687)"><g clip-path="url(#f0d21f40bc)"><g clip-path="url(#e2886c2f62)"><path fill="#006fee" d="M 292.625 92.710938 L 145.609375 86.175781 C 117.210938 84.914062 112.417969 140.230469 146.0625 141.144531 L 237.542969 143.621094 L 230.558594 235.671875 C 228.429688 263.703125 283.097656 266.664062 284.660156 238.175781 Z M 292.625 92.710938 " fill-opacity="1" fill-rule="nonzero"/></g></g></g></svg>